<mxfile host="app.diagrams.net" modified="2022-02-28T03:04:08.616Z" agent="5.0 (X11)" etag="mwqOIaCTVZ1cNvpllE-h" version="16.6.4" type="github">
  <diagram id="J5-MaVGMtkhbtzbR83I5" name="Page-1">
    <mxGraphModel dx="1422" dy="755" grid="1" gridSize="10" guides="1" tooltips="1" connect="1" arrows="1" fold="1" page="1" pageScale="1" pageWidth="850" pageHeight="1100" math="0" shadow="0">
      <root>
        <mxCell id="0" />
        <mxCell id="1" parent="0" />
        <mxCell id="SL7Pr_ITHsChF1TBJ-bq-1" value="" style="whiteSpace=wrap;html=1;aspect=fixed;" vertex="1" parent="1">
          <mxGeometry x="100" y="200" width="230" height="230" as="geometry" />
        </mxCell>
        <mxCell id="SL7Pr_ITHsChF1TBJ-bq-2" value="" style="endArrow=none;html=1;rounded=0;strokeWidth=6;" edge="1" parent="1">
          <mxGeometry width="50" height="50" relative="1" as="geometry">
            <mxPoint x="100" y="200" as="sourcePoint" />
            <mxPoint x="120" y="160" as="targetPoint" />
          </mxGeometry>
        </mxCell>
        <mxCell id="SL7Pr_ITHsChF1TBJ-bq-3" value="" style="endArrow=none;html=1;rounded=0;strokeWidth=6;" edge="1" parent="1">
          <mxGeometry width="50" height="50" relative="1" as="geometry">
            <mxPoint x="140" y="200" as="sourcePoint" />
            <mxPoint x="160" y="160" as="targetPoint" />
          </mxGeometry>
        </mxCell>
        <mxCell id="SL7Pr_ITHsChF1TBJ-bq-4" value="" style="endArrow=none;html=1;rounded=0;strokeWidth=6;" edge="1" parent="1">
          <mxGeometry width="50" height="50" relative="1" as="geometry">
            <mxPoint x="190" y="200" as="sourcePoint" />
            <mxPoint x="210" y="160" as="targetPoint" />
          </mxGeometry>
        </mxCell>
        <mxCell id="SL7Pr_ITHsChF1TBJ-bq-5" value="" style="endArrow=none;html=1;rounded=0;strokeWidth=6;" edge="1" parent="1">
          <mxGeometry width="50" height="50" relative="1" as="geometry">
            <mxPoint x="240" y="200" as="sourcePoint" />
            <mxPoint x="260" y="160" as="targetPoint" />
          </mxGeometry>
        </mxCell>
        <mxCell id="SL7Pr_ITHsChF1TBJ-bq-6" value="" style="endArrow=none;html=1;rounded=0;strokeWidth=6;" edge="1" parent="1">
          <mxGeometry width="50" height="50" relative="1" as="geometry">
            <mxPoint x="285" y="200" as="sourcePoint" />
            <mxPoint x="305" y="160" as="targetPoint" />
          </mxGeometry>
        </mxCell>
        <mxCell id="SL7Pr_ITHsChF1TBJ-bq-7" value="" style="endArrow=none;html=1;rounded=0;strokeWidth=6;" edge="1" parent="1">
          <mxGeometry width="50" height="50" relative="1" as="geometry">
            <mxPoint x="330" y="200" as="sourcePoint" />
            <mxPoint x="350" y="160" as="targetPoint" />
          </mxGeometry>
        </mxCell>
        <mxCell id="SL7Pr_ITHsChF1TBJ-bq-8" value="" style="endArrow=none;html=1;rounded=0;strokeWidth=6;" edge="1" parent="1">
          <mxGeometry width="50" height="50" relative="1" as="geometry">
            <mxPoint x="180" y="320" as="sourcePoint" />
            <mxPoint x="100" y="320" as="targetPoint" />
          </mxGeometry>
        </mxCell>
        <mxCell id="SL7Pr_ITHsChF1TBJ-bq-10" value="" style="shape=flexArrow;endArrow=classic;html=1;rounded=0;strokeWidth=6;" edge="1" parent="1">
          <mxGeometry width="50" height="50" relative="1" as="geometry">
            <mxPoint x="110" y="430" as="sourcePoint" />
            <mxPoint x="110" y="490" as="targetPoint" />
          </mxGeometry>
        </mxCell>
        <mxCell id="SL7Pr_ITHsChF1TBJ-bq-11" value="" style="shape=flexArrow;endArrow=classic;html=1;rounded=0;strokeWidth=6;" edge="1" parent="1">
          <mxGeometry width="50" height="50" relative="1" as="geometry">
            <mxPoint x="220" y="430" as="sourcePoint" />
            <mxPoint x="220" y="490" as="targetPoint" />
          </mxGeometry>
        </mxCell>
        <mxCell id="SL7Pr_ITHsChF1TBJ-bq-12" value="" style="shape=flexArrow;endArrow=classic;html=1;rounded=0;strokeWidth=6;" edge="1" parent="1">
          <mxGeometry width="50" height="50" relative="1" as="geometry">
            <mxPoint x="320" y="430" as="sourcePoint" />
            <mxPoint x="320" y="490" as="targetPoint" />
          </mxGeometry>
        </mxCell>
        <mxCell id="SL7Pr_ITHsChF1TBJ-bq-13" value="" style="whiteSpace=wrap;html=1;aspect=fixed;" vertex="1" parent="1">
          <mxGeometry x="488" y="200" width="230" height="230" as="geometry" />
        </mxCell>
        <mxCell id="SL7Pr_ITHsChF1TBJ-bq-14" value="" style="endArrow=none;html=1;rounded=0;strokeWidth=6;" edge="1" parent="1">
          <mxGeometry width="50" height="50" relative="1" as="geometry">
            <mxPoint x="488" y="200" as="sourcePoint" />
            <mxPoint x="508" y="160" as="targetPoint" />
          </mxGeometry>
        </mxCell>
        <mxCell id="SL7Pr_ITHsChF1TBJ-bq-15" value="" style="endArrow=none;html=1;rounded=0;strokeWidth=6;" edge="1" parent="1">
          <mxGeometry width="50" height="50" relative="1" as="geometry">
            <mxPoint x="528" y="200" as="sourcePoint" />
            <mxPoint x="548" y="160" as="targetPoint" />
          </mxGeometry>
        </mxCell>
        <mxCell id="SL7Pr_ITHsChF1TBJ-bq-16" value="" style="endArrow=none;html=1;rounded=0;strokeWidth=6;" edge="1" parent="1">
          <mxGeometry width="50" height="50" relative="1" as="geometry">
            <mxPoint x="578" y="200" as="sourcePoint" />
            <mxPoint x="598" y="160" as="targetPoint" />
          </mxGeometry>
        </mxCell>
        <mxCell id="SL7Pr_ITHsChF1TBJ-bq-17" value="" style="endArrow=none;html=1;rounded=0;strokeWidth=6;" edge="1" parent="1">
          <mxGeometry width="50" height="50" relative="1" as="geometry">
            <mxPoint x="628" y="200" as="sourcePoint" />
            <mxPoint x="648" y="160" as="targetPoint" />
          </mxGeometry>
        </mxCell>
        <mxCell id="SL7Pr_ITHsChF1TBJ-bq-18" value="" style="endArrow=none;html=1;rounded=0;strokeWidth=6;" edge="1" parent="1">
          <mxGeometry width="50" height="50" relative="1" as="geometry">
            <mxPoint x="673" y="200" as="sourcePoint" />
            <mxPoint x="693" y="160" as="targetPoint" />
          </mxGeometry>
        </mxCell>
        <mxCell id="SL7Pr_ITHsChF1TBJ-bq-19" value="" style="endArrow=none;html=1;rounded=0;strokeWidth=6;" edge="1" parent="1">
          <mxGeometry width="50" height="50" relative="1" as="geometry">
            <mxPoint x="718" y="200" as="sourcePoint" />
            <mxPoint x="738" y="160" as="targetPoint" />
          </mxGeometry>
        </mxCell>
        <mxCell id="SL7Pr_ITHsChF1TBJ-bq-20" value="" style="endArrow=none;html=1;rounded=0;strokeWidth=6;" edge="1" parent="1">
          <mxGeometry width="50" height="50" relative="1" as="geometry">
            <mxPoint x="568" y="320" as="sourcePoint" />
            <mxPoint x="488" y="320" as="targetPoint" />
          </mxGeometry>
        </mxCell>
        <mxCell id="SL7Pr_ITHsChF1TBJ-bq-21" value="" style="shape=flexArrow;endArrow=classic;html=1;rounded=0;strokeWidth=6;entryX=0.283;entryY=1.004;entryDx=0;entryDy=0;entryPerimeter=0;" edge="1" parent="1">
          <mxGeometry width="50" height="50" relative="1" as="geometry">
            <mxPoint x="489" y="430" as="sourcePoint" />
            <mxPoint x="544.0899999999999" y="430.9200000000001" as="targetPoint" />
          </mxGeometry>
        </mxCell>
        <mxCell id="SL7Pr_ITHsChF1TBJ-bq-22" value="" style="shape=flexArrow;endArrow=classic;html=1;rounded=0;strokeWidth=6;entryX=0.75;entryY=1;entryDx=0;entryDy=0;" edge="1" parent="1">
          <mxGeometry width="50" height="50" relative="1" as="geometry">
            <mxPoint x="584" y="430" as="sourcePoint" />
            <mxPoint x="636.5" y="430" as="targetPoint" />
          </mxGeometry>
        </mxCell>
        <mxCell id="SL7Pr_ITHsChF1TBJ-bq-23" value="" style="shape=flexArrow;endArrow=classic;html=1;rounded=0;strokeWidth=6;" edge="1" parent="1">
          <mxGeometry width="50" height="50" relative="1" as="geometry">
            <mxPoint x="665" y="430" as="sourcePoint" />
            <mxPoint x="725" y="430" as="targetPoint" />
          </mxGeometry>
        </mxCell>
      </root>
    </mxGraphModel>
  </diagram>
</mxfile>
